poster: 
http://imgh.us/Teri-Meri-Kahani-2012.jpg

Format : AVI
Format/Info : Audio Video Interleave
File size : 699 MiB
Duration : 1h 58mn
Overall bit rate : 824 Kbps

Video
ID : 0
Format : MPEG-4 Visual
Codec ID : XVID
Codec ID/Hint : XviD
Duration : 1h 58mn
Bit rate : 720 Kbps
Width : 640 pixels
Height : 288 pixels
Display aspect ratio : 2.222
Frame rate : 23.976 fps
Color space : YUV
Chroma subsampling : 4:2:0
Compression mode : Lossy
Bits/(Pixel*Frame) : 0.163
Stream size : 393 MiB (56%)

Audio
ID : 1
Format : MPEG Audio
Codec ID : 55
Codec ID/Hint : MP3
Duration : 1h 58mn
Bit rate : 85.3 Kbps
Channel(s) : 2 channels
Sampling rate : 32.0 KHz
Compression mode : Lossy
Stream size : 46.5 MiB (7%)
Alignment : Aligned on interleaves
Interleave, duration : 36 ms (0.86 video frame)
Interleave, preload duration : 222 ms
Title : VTS_01_1 T80 2_0ch 192Kbps DELAY 0ms

SCREENS: 
http://picturestack.com/528/255/ZBX25OZ4.jpg 
http://picturestack.com/528/255/Fzy22neW.jpg 
http://picturestack.com/528/255/KxG1819k.jpg 
http://picturestack.com/528/255/P5e17cvi.jpg 
http://picturestack.com/528/255/KO98ARC.jpg 
http://picturestack.com/528/255/cQ1148rl.jpg 
http://picturestack.com/528/255/P0d210FQ.jpg 
http://picturestack.com/528/255/mHz1mWi.jpg 
http://picturestack.com/528/255/Lk74q30.jpg 
http://picturestack.com/528/255/rqb19KQ0.jpg